<?xml version="1.0" encoding="UTF-8"?>
<!DOCTYPE svg PUBLIC "-//W3C//DTD SVG 1.1//EN" "http://www.w3.org/Graphics/SVG/1.1/DTD/svg11.dtd">
<!-- Creator: CorelDRAW -->
<svg xmlns="http://www.w3.org/2000/svg" xml:space="preserve" width="80.2998mm" height="23.0514mm" version="1.1" style="shape-rendering:geometricPrecision; text-rendering:geometricPrecision; image-rendering:optimizeQuality; fill-rule:evenodd; clip-rule:evenodd"
viewBox="0 0 4266 1224.63"
 xmlns:xlink="http://www.w3.org/1999/xlink"
 xmlns:xodm="http://www.corel.com/coreldraw/odm/2003">
 <defs>
  <style type="text/css">
   <![CDATA[
    .fil3 {fill:#4E9E8F;fill-rule:nonzero}
    .fil2 {fill:#5AB2AD;fill-rule:nonzero}
    .fil4 {fill:#939598;fill-rule:nonzero}
    .fil1 {fill:#EB8B2A;fill-rule:nonzero}
    .fil0 {fill:#EFA73F;fill-rule:nonzero}
   ]]>
  </style>
 </defs>
 <g id="Camada_x0020_1">
  <metadata id="CorelCorpID_0Corel-Layer"/>
  <g id="_2668629691952">
   <path class="fil0" d="M1.47 643.34c-24.5,-281.16 261.45,-503.8 602.85,-468.54 8.3,0.86 10.33,13.86 2.11,15.34 -278.86,50.11 -365.4,465.36 -568.04,477.94 -18,1.12 -35.36,-6.76 -36.92,-24.74z"/>
   <path class="fil1" d="M1.47 643.34c0.7,7.99 4.62,13.88 10.22,17.97 39.86,23 107.39,-43.59 152.09,-182.6 65.54,-203.91 266.15,-299.52 440.54,-303.91 -341.4,-35.26 -627.35,187.38 -602.85,468.54l0 0z"/>
   <path class="fil2" d="M643.34 1223.1c-281.16,24.5 -503.8,-261.45 -468.53,-602.86 0.85,-8.3 13.86,-10.33 15.33,-2.11 50.11,278.85 465.36,365.4 477.95,568.04 1.11,18 -6.77,35.36 -24.75,36.92z"/>
   <path class="fil3" d="M643.34 1223.1c7.99,-0.7 13.88,-4.63 17.97,-10.23 23,-39.86 -43.6,-107.39 -182.6,-152.08 -203.9,-65.55 -299.51,-266.16 -303.91,-440.55 -35.27,341.39 187.37,627.36 468.53,602.85z"/>
   <path class="fil0" d="M1223.09 581.21c24.5,281.16 -261.45,503.8 -602.86,468.54 -8.3,-0.86 -10.33,-13.86 -2.11,-15.33 278.85,-50.11 365.4,-465.36 568.04,-477.94 18,-1.12 35.36,6.76 36.92,24.74z"/>
   <path class="fil1" d="M1223.08 581.21c-0.7,-8 -4.62,-13.88 -10.23,-17.97 -39.86,-23 -107.39,43.6 -152.08,182.6 -65.56,203.9 -266.16,299.52 -440.55,303.91 341.4,35.26 627.35,-187.38 602.86,-468.54l0 0z"/>
   <path class="fil2" d="M581.21 1.47c281.15,-24.5 503.8,261.46 468.53,602.86 -0.85,8.3 -13.86,10.33 -15.33,2.11 -50.12,-278.85 -465.36,-365.4 -477.95,-568.04 -1.11,-18.01 6.77,-35.36 24.75,-36.93z"/>
   <path class="fil3" d="M581.2 1.47c-8,0.7 -13.87,4.62 -17.97,10.22 -23.01,39.85 43.59,107.4 182.6,152.08 203.9,65.55 299.51,266.16 303.9,440.55 35.27,-341.4 -187.37,-627.36 -468.53,-602.86l0 0z"/>
   <path class="fil4" d="M2192.9 583.07l-129.57 0 0 -32.4c0,-17.88 14.5,-32.38 32.4,-32.38l64.78 0c17.88,0 32.39,14.5 32.39,32.38l0 32.4zm0 -194.36l-129.57 0c-71.56,0 -129.57,58.01 -129.57,129.57l0 259.13c0,71.56 58.01,129.57 129.57,129.57l226.75 0 0 -129.57 -97.18 0 -64.79 0 -32.38 0c-17.9,0 -32.4,-14.5 -32.4,-32.39l0 -32.4 259.13 0 0 -194.35c0,-71.57 -58.01,-129.57 -129.56,-129.57l0 0.01z"/>
   <path class="fil4" d="M1674.62 0.01l-259.13 0 0 128.24 257.47 0c35.78,0 64.79,29 64.79,64.78l0 518.28c0,35.78 -29.01,64.78 -64.79,64.78l-129.56 0 0 -581.72 -127.91 0 0 712.63 259.14 0c107.34,0 194.36,-87.02 194.36,-194.36l0 -518.27c0,-107.33 -87.02,-194.36 -194.36,-194.36l0 0z"/>
   <path class="fil4" d="M1416.44 1164.77c8.78,5.13 21.36,8.49 35.05,8.49 29.7,0 46.75,-15.44 46.75,-37.39 0,-18.59 -11.12,-29.41 -32.78,-37.69 -16.25,-6.22 -23.77,-10.82 -23.77,-21.21 0,-9.3 7.53,-16.97 20.92,-16.97 11.64,0 20.64,4.1 25.54,7.17l5.71 -16.46c-6.96,-4.17 -18.07,-7.75 -30.73,-7.75 -26.85,0 -43.1,16.53 -43.1,36.65 0,14.93 10.61,27.37 33.08,35.34 16.76,6.22 23.19,12.14 23.19,22.98 0,10.32 -7.75,18.58 -24.29,18.58 -11.34,0 -23.19,-4.68 -29.92,-9.07l-5.64 17.34 -0.01 0zm256.52 5.93c-1.54,-8.48 -2.05,-19.09 -2.05,-29.92l0 -46.75c0,-25.03 -9.29,-51.08 -47.49,-51.08 -15.73,0 -30.73,4.39 -41.04,11.05l5.19 15c8.71,-5.71 20.86,-9.29 32.49,-9.29 25.54,0 28.4,18.58 28.4,28.9l0 2.56c-48.3,-0.22 -75.15,16.32 -75.15,46.46 0,18.07 12.96,35.92 38.27,35.92 17.78,0 31.17,-8.77 38.19,-18.58l0.73 0 1.83 15.73 20.63 0 0 0zm-24 -42.07c0,2.34 -0.51,4.89 -1.32,7.24 -3.59,10.54 -13.9,20.85 -30.14,20.85 -11.63,0 -21.44,-6.95 -21.44,-21.66 0,-24.21 28.09,-28.6 52.9,-28.09l0 21.66zm218.85 -82.83l-22.68 0 0 76.61c0,4.17 -0.8,8.26 -2.05,11.63 -4.17,10.09 -14.71,20.63 -29.99,20.63 -20.63,0 -27.88,-15.95 -27.88,-39.73l0 -69.14 -22.68 0 0 73.02c0,43.9 23.49,54.73 43.1,54.73 22.17,0 35.34,-13.16 41.34,-23.26l0.52 0 1.24 20.42 20.12 0c-0.73,-9.81 -1.02,-21.15 -1.02,-34.1l0 -90.8 0 -0.01zm-40.54 -53.99l-22.68 36.94 16.24 0 31.54 -36.94 -25.09 0 0 0zm219.2 -4.39l0 74.63 -0.5 0c-5.7,-10.1 -18.57,-19.1 -37.67,-19.1 -30.53,0 -56.28,25.53 -56.04,67.09 0,37.97 23.25,63.51 53.41,63.51 20.42,0 35.64,-10.6 42.58,-24.51l0.5 0 1.11 21.65 20.34 0c-0.73,-8.48 -1.03,-21.14 -1.03,-32.26l0 -151.02 -22.69 0 0 0zm0 130.9c0,3.58 -0.29,6.73 -1,9.8 -4.17,17.05 -18.07,27.07 -33.29,27.07 -24.59,0 -36.96,-20.86 -36.96,-46.17 0,-27.66 13.98,-48.29 37.46,-48.29 16.97,0 29.41,11.85 32.79,26.34 0.72,2.85 1,6.73 1,9.58l0 21.66zm216.58 -5.92c0.23,-2.35 0.73,-5.93 0.73,-10.61 0,-22.97 -10.82,-58.83 -51.58,-58.83 -36.43,0 -58.6,29.63 -58.6,67.32 0,37.76 22.96,63 61.45,63 19.84,0 33.51,-4.1 41.56,-7.75l-3.88 -16.25c-8.55,3.67 -18.37,6.44 -34.59,6.44 -22.69,0 -42.37,-12.59 -42.87,-43.31l87.79 0 0 0zm-87.51 -16.32c1.84,-15.73 11.86,-36.87 34.85,-36.87 25.52,0 31.74,22.47 31.53,36.87l-66.38 0zm305.33 74.64l0 -124.9 -22.67 0 0 124.9 22.67 0zm-11.32 -174.22c-8.28,0 -14.21,6.14 -14.21,14.2 0,7.76 5.64,13.9 13.69,13.9 8.99,0 14.72,-6.14 14.42,-13.9 0,-8.04 -5.43,-14.2 -13.9,-14.2l0 0zm104.84 174.22l22.67 0 0 -75.15c0,-3.88 0.53,-7.68 1.56,-10.53 3.87,-12.66 15.51,-23.27 30.42,-23.27 21.44,0 28.99,16.82 28.99,36.95l0 72 22.67 0 0 -74.64c0,-42.8 -26.84,-53.12 -44.12,-53.12 -20.63,0 -35.12,11.57 -41.34,23.49l-0.5 0 -1.25 -20.63 -20.2 0c0.81,10.32 1.11,20.85 1.11,33.8l0 91.1 0 0zm204.13 -154.9l0 30.01 -19.31 0 0 17.27 19.31 0 0 68.11c0,14.71 2.35,25.84 8.78,32.57 5.41,6.15 13.98,9.51 24.51,9.51 8.78,0 15.72,-1.24 20.12,-3.08l-1.03 -17.05c-2.87,0.81 -7.25,1.54 -13.17,1.54 -12.65,0 -17.06,-8.78 -17.06,-24.23l0 -67.38 32.58 0 0 -17.27 -32.58 0 0 -35.92 -22.16 5.92zm234.94 96.59c0.21,-2.35 0.72,-5.93 0.72,-10.61 0,-22.97 -10.83,-58.83 -51.58,-58.83 -36.44,0 -58.6,29.63 -58.6,67.32 0,37.76 22.98,63 61.45,63 19.83,0 33.51,-4.1 41.57,-7.75l-3.88 -16.25c-8.57,3.67 -18.36,6.44 -34.61,6.44 -22.68,0 -42.37,-12.59 -42.88,-43.31l87.81 0 0 0zm-87.51 -16.32c1.82,-15.73 11.85,-36.87 34.82,-36.87 25.54,0 31.74,22.47 31.53,36.87l-66.35 0zm172.15 74.64l22.68 0 0 -183.29 -22.68 0 0 183.29zm139.38 0l0 -124.9 -22.67 0 0 124.9 22.67 0zm-11.32 -174.22c-8.28,0 -14.2,6.14 -14.2,14.2 0,7.76 5.62,13.9 13.67,13.9 9,0 14.72,-6.14 14.41,-13.9 0,-8.04 -5.41,-14.2 -13.88,-14.2zm192.57 49.32l-1.03 18.81 -0.5 0c-5.41,-10.33 -17.36,-21.66 -39.02,-21.66 -28.59,0 -56.24,24 -56.24,66.29 0,34.61 22.16,60.95 53.18,60.95 19.31,0 32.77,-9.29 39.73,-20.93l0.5 0 0 13.98c0,31.46 -17.04,43.61 -40.23,43.61 -15.52,0 -28.39,-4.68 -36.65,-9.8l-5.72 17.27c10.1,6.73 26.64,10.31 41.58,10.31 15.72,0 33.27,-3.59 45.43,-14.92 12.14,-10.83 17.86,-28.39 17.86,-57.07l0 -72.51c0,-15.22 0.5,-25.32 1,-34.32l-19.89 0 0 0.01zm-3.59 71.7c0,3.88 -0.52,8.27 -1.82,12.15 -4.9,14.48 -17.57,23.27 -31.47,23.27 -24.59,0 -36.96,-20.42 -36.96,-44.92 0,-28.91 15.52,-47.27 37.17,-47.27 16.54,0 27.67,10.83 31.76,24 1.03,3.14 1.32,6.43 1.32,10.31l0 22.46zm216.29 -5.12c0.21,-2.35 0.73,-5.93 0.73,-10.61 0,-22.97 -10.84,-58.83 -51.6,-58.83 -36.44,0 -58.6,29.63 -58.6,67.32 0,37.76 22.98,63 61.47,63 19.82,0 33.51,-4.1 41.56,-7.75l-3.88 -16.25c-8.56,3.67 -18.36,6.44 -34.61,6.44 -22.68,0 -42.37,-12.59 -42.87,-43.31l87.81 0 0 0zm-87.51 -16.32c1.82,-15.73 11.85,-36.87 34.82,-36.87 25.54,0 31.76,22.47 31.53,36.87l-66.35 0zm172.15 74.64l22.68 0 0 -75.15c0,-3.88 0.53,-7.68 1.53,-10.53 3.88,-12.66 15.51,-23.27 30.44,-23.27 21.45,0 28.97,16.82 28.97,36.95l0 72 22.69 0 0 -74.64c0,-42.8 -26.86,-53.12 -44.12,-53.12 -20.63,0 -35.12,11.57 -41.34,23.49l-0.53 0 -1.24 -20.63 -20.18 0c0.79,10.32 1.1,20.85 1.1,33.8l0 91.1 -0.02 0zm204.15 -154.9l0 30.01 -19.31 0 0 17.27 19.31 0 0 68.11c0,14.71 2.34,25.84 8.79,32.57 5.41,6.15 13.96,9.51 24.51,9.51 8.77,0 15.73,-1.24 20.11,-3.08l-1.01 -17.05c-2.87,0.81 -7.25,1.54 -13.19,1.54 -12.64,0 -17.05,-8.78 -17.05,-24.23l0 -67.38 32.56 0 0 -17.27 -32.56 0 0 -35.92 -22.16 5.92zm234.9 96.59c0.23,-2.35 0.73,-5.93 0.73,-10.61 0,-22.97 -10.84,-58.83 -51.58,-58.83 -36.43,0 -58.61,29.63 -58.61,67.32 0,37.76 22.97,63 61.47,63 19.82,0 33.51,-4.1 41.55,-7.75l-3.87 -16.25c-8.55,3.67 -18.36,6.44 -34.62,6.44 -22.67,0 -42.35,-12.59 -42.87,-43.31l87.81 0 0 0zm-87.51 -16.32c1.85,-15.73 11.85,-36.87 34.83,-36.87 25.54,0 31.76,22.47 31.55,36.87l-66.38 0z"/>
   <path class="fil4" d="M4136.43 777.43l-97.17 0c-17.9,0 -32.4,-14.51 -32.4,-32.39 0,-17.89 14.5,-32.4 32.4,-32.4l97.17 0 0 64.79 0 0zm0 -388.71l-226.74 0 0 129.57 97.17 0 64.78 0 32.41 0c17.88,0 32.38,14.5 32.38,32.39l0 32.4 -129.57 0c-71.55,0 -129.57,58.01 -129.57,129.56l0 64.79c0,71.56 58.02,129.57 129.57,129.57l259.14 0 0 -388.71c0,-71.56 -58,-129.57 -129.57,-129.57l0 0z"/>
   <path class="fil4" d="M3164.66 583.07c0,107.34 -87.01,194.35 -194.36,194.35l0 -583.06 -129.55 0 0 712.63 129.55 0c178.91,0 323.93,-145.02 323.93,-323.92l0 -583.06 -129.57 0 0 583.06 0 0z"/>
   <path class="fil4" d="M2646.4 745.03c0,17.89 -14.5,32.39 -32.4,32.39l-64.79 0c-17.9,0 -32.4,-14.5 -32.4,-32.39l0 -194.36c0,-17.88 14.5,-32.39 32.4,-32.39l64.79 0c17.9,0 32.4,14.5 32.4,32.39l0 194.36zm0 -356.32l-129.59 0c-71.55,0 -129.55,58.01 -129.55,129.57l0 259.14c0,71.56 58,129.57 129.55,129.57l129.59 0c71.55,0 129.57,-58.01 129.57,-129.57l0 -259.14c0,-71.57 -58.02,-129.57 -129.57,-129.57z"/>
   <polygon class="fil4" points="3359.01,906.99 3488.58,906.99 3488.58,388.73 3359.01,388.73 "/>
   <polygon class="fil4" points="3359.01,323.94 3488.58,323.94 3488.58,194.37 3359.01,194.37 "/>
   <path class="fil4" d="M3684.6 194.36l-131.24 0 0 518.27c0,107.35 87.03,194.36 194.36,194.36l64.79 0 0 -130.91 -63.12 0c-35.78,0 -64.78,-29 -64.78,-64.78l0 -193.03 127.91 0 0 -129.57 -127.91 0 0 -194.35 0 0z"/>
  </g>
 </g>
</svg>
