<?xml version="1.0" encoding="UTF-8"?>
<!DOCTYPE svg PUBLIC "-//W3C//DTD SVG 1.1//EN" "http://www.w3.org/Graphics/SVG/1.1/DTD/svg11.dtd">
<!-- Creator: CorelDRAW -->
<svg xmlns="http://www.w3.org/2000/svg" xml:space="preserve" width="53.3922mm" height="53.3955mm" version="1.1" style="shape-rendering:geometricPrecision; text-rendering:geometricPrecision; image-rendering:optimizeQuality; fill-rule:evenodd; clip-rule:evenodd"
viewBox="0 0 5325 5325.33"
 xmlns:xlink="http://www.w3.org/1999/xlink"
 xmlns:xodm="http://www.corel.com/coreldraw/odm/2003">
 <defs>
  <style type="text/css">
   <![CDATA[
    .fil2 {fill:#109289}
    .fil0 {fill:#13AFA6}
    .fil1 {fill:white}
   ]]>
  </style>
 </defs>
 <g id="Layer_x0020_1">
  <metadata id="CorelCorpID_0Corel-Layer"/>
  <g id="_2853620885664">
   <rect class="fil0" width="5325" height="5325"/>
   <path class="fil1" d="M1503.34 4275.15c169.55,57.99 296.51,105.14 493.56,138.84 487.15,83.31 1210.68,72.67 1659.4,-78.77 137.65,-46.46 299.68,-102.8 321.69,-297.07 16.12,-142.25 -55.51,-386.78 -117.76,-489.12 -115.46,-189.85 -354.89,-286.71 -556.28,-366.93 -66.11,-26.34 -161.11,-49.89 -222.31,-79.24 -88.64,-354.91 52.56,-307.22 127.53,-429.77 47.95,-78.39 63.6,-187.3 78.57,-281.48 108.32,-11.23 93.89,-48.48 129.91,-225.98 9.37,-46.19 26.41,-110.73 22.69,-162.48 -6.65,-92.67 -62.79,-74.86 -83.83,-84.13 2.95,-61.8 12.3,-130.99 19.31,-193.27 8.17,-72.6 47.59,-80.89 42.41,-164.84 -4.69,-75.82 -49.68,-279.24 -72.05,-352.11 -22.37,-22.32 -47.69,-68.29 -80.5,-99.99 -87.99,-85.05 -155.04,-173.95 -312.44,-225.27 -148.42,-48.39 -527.59,-33.62 -654.53,30.59 -116.13,58.74 -318.27,236.05 -346.87,379.35 -92.78,464.92 -2.24,227.85 16.1,625.55 -45.21,19.62 -78.72,0.25 -83.69,86.63 -2.93,51.03 39.85,252.41 54.17,307.99 17.61,68.42 27.1,70.17 99.43,77.65 14.37,71.63 21.89,139.33 43.53,204.18 61.21,183.39 192.87,169.75 189.08,293.88 -2.08,68.41 -6.91,154.88 -28.15,210.93 -14.57,18.78 -584.79,179.64 -735.33,387.09 -100.01,137.81 -219.12,475.82 -129.27,650.07 17.28,33.52 36.28,57.35 59.92,81.19 17.92,18.08 57.64,44.5 65.71,56.51z"/>
   <path class="fil2" d="M1503.34 4275.15c28.53,52.42 815.98,820.75 900.45,909.67l84.86 85.32c47.12,45.17 1.25,0.25 55.24,54.85 2.01,0.05 10.1,0 17.94,0 33.31,0.44 66.3,0.44 99,0l2664.16 0 0 -2156.97c-61.61,-61.52 -121.97,-121.8 -194.18,-193.91l-328.75 -328.77c-166.44,-162.6 -325.89,-322.69 -480.53,-481.07l-358.86 -357.51c-41.31,-44.16 -77.45,-81.2 -121.4,-123.53 -83.57,-80.5 -161.29,-165.26 -240.24,-240.54 -35.85,-34.19 -80.91,-78.58 -117.46,-118.29 -29.42,-31.96 -95,-106.16 -137.39,-115.6 22.37,72.87 67.36,276.29 72.05,352.11 5.19,83.95 -34.24,92.24 -42.41,164.84 -7.01,62.28 -16.36,131.47 -19.31,193.27 21.03,9.27 77.17,-8.55 83.83,84.13 3.72,51.74 -13.31,116.29 -22.69,162.48 -36.02,177.5 -21.59,214.75 -129.91,225.98 -14.97,94.18 -30.62,203.09 -78.57,281.48 -74.97,122.55 -216.17,74.86 -127.53,429.77 61.2,29.35 156.19,52.9 222.31,79.24 201.39,80.22 440.82,177.08 556.28,366.93 62.24,102.35 133.87,346.87 117.76,489.12 -22.01,194.27 -184.04,250.61 -321.69,297.07 -448.72,151.44 -1172.25,162.08 -1659.4,78.77 -197.05,-33.7 -324.01,-80.85 -493.56,-138.84z"/>
  </g>
 </g>
</svg>
