<svg width="40" height="40" viewBox="0 0 40 40" fill="none" xmlns="http://www.w3.org/2000/svg">
<path d="M0.0478864 21.0135C-0.752337 11.8299 8.58782 4.55786 19.739 5.70963C20.0102 5.73744 20.0765 6.16234 19.808 6.21052C10.6996 7.84728 7.87305 21.4105 1.2539 21.8215C0.665805 21.8582 0.0990275 21.6005 0.0478864 21.0135V21.0135Z" fill="#EFA73F"/>
<path d="M0.0478233 21.0135C0.0705877 21.2745 0.198787 21.4668 0.381848 21.6005C1.68346 22.3518 3.88965 20.1766 5.34935 15.6363C7.49034 8.97605 14.0426 5.85303 19.739 5.70963C8.58782 4.55786 -0.752337 11.8299 0.0478864 21.0135H0.0478233Z" fill="#EB8B2A"/>
<path d="M21.0136 39.9501C11.83 40.7504 4.55798 31.4101 5.70976 20.259C5.73769 19.9877 6.16233 19.9216 6.21051 20.19C7.84728 29.2983 21.4106 32.1249 21.8217 38.7441C21.8582 39.3321 21.6006 39.8989 21.0136 39.9501Z" fill="#5AB2AD"/>
<path d="M21.0136 39.95C21.2744 39.9272 21.4668 39.799 21.6006 39.616C22.3519 38.3144 20.1768 36.1082 15.6364 34.6487C8.97617 32.5075 5.85315 25.9553 5.70976 20.2589C4.55798 31.4101 11.83 40.7504 21.0136 39.95V39.95Z" fill="#4E9E8F"/>
<path d="M39.9498 18.984C40.7501 28.1678 31.4098 35.4398 20.2587 34.288C19.9874 34.2601 19.9213 33.8353 20.1897 33.7872C29.2982 32.1504 32.1246 18.5872 38.7438 18.176C39.3318 18.1395 39.8986 18.3971 39.9498 18.984V18.984Z" fill="#EFA73F"/>
<path d="M39.9496 18.984C39.9268 18.723 39.7989 18.5309 39.6157 18.3971C38.3139 17.6458 36.1077 19.8209 34.6482 24.3612C32.507 31.0215 25.9548 34.1446 20.2584 34.288C31.4096 35.4398 40.7497 28.1678 39.9495 18.984H39.9496Z" fill="#EB8B2A"/>
<path d="M18.9842 0.0478864C28.1678 -0.752337 35.4398 8.58782 34.288 19.739C34.2602 20.0102 33.8353 20.0765 33.7873 19.8081C32.1504 10.6996 18.5872 7.87298 18.1761 1.25402C18.1396 0.665805 18.3972 0.0990275 18.9842 0.0478864V0.0478864Z" fill="#5AB2AD"/>
<path d="M18.9839 0.0478234C18.7229 0.0705878 18.5308 0.198661 18.397 0.381849C17.6457 1.68346 19.8209 3.88965 24.3613 5.34935C31.0214 7.49034 34.1444 14.0428 34.2878 19.739C35.4396 8.58782 28.1676 -0.752337 18.984 0.0478864L18.9839 0.0478234Z" fill="#4E9E8F"/>
</svg>
